<svg width="1920" height="870" viewBox="0 0 1920 870" fill="none" xmlns="http://www.w3.org/2000/svg">
<path d="M969 203.5C969 209.299 964.299 214 958.5 214C952.701 214 948 209.299 948 203.5C948 197.701 952.701 193 958.5 193C964.299 193 969 197.701 969 203.5Z" fill="black"/>
<path fill-rule="evenodd" clip-rule="evenodd" d="M958.5 226C970.926 226 981 215.927 981 203.5C981 191.073 970.926 181 958.5 181C946.074 181 936 191.073 936 203.5C936 215.927 946.074 226 958.5 226ZM975 203.5C975 212.613 967.613 220 958.5 220C949.387 220 942 212.613 942 203.5C942 194.387 949.387 187 958.5 187C967.613 187 975 194.387 975 203.5Z" fill="black"/>
<path fill-rule="evenodd" clip-rule="evenodd" d="M0 0H1920V870H0V0ZM795 236V216L857 222.5V225L795 236ZM839 324.151L853.565 337.857L888.044 285.168L886.223 283.455L839 324.151ZM968.813 365.995L948.815 366.257L954.499 304.177L956.999 304.145L968.813 365.995ZM1048.16 338.76L1064.85 327.741L1021.51 282.061L1019.42 283.438L1048.16 338.76ZM1124.51 229.903L1119.6 249.293L1061.09 227.795L1061.7 225.372L1124.51 229.903ZM1103.95 138.506L1096.37 120L1043.17 153.692L1044.12 156.005L1103.95 138.506ZM1009.29 53L1026.74 62.7698L990.78 113.694L988.598 112.473L1009.29 53ZM920.727 48L901 51.2908L922.052 110.636L924.518 110.224L920.727 48ZM814.959 131.418L825.577 114.469L874.668 152.893L873.34 155.011L814.959 131.418ZM1043.5 93.5L1053.5 103.5L1009 145.5L1005.5 142.5L1043.5 93.5ZM1100.78 187.87L1099.71 173.768L1038.96 186.161L1039.65 190.718L1100.78 187.87ZM1088.33 274.293L1080.43 286.027L1030.67 250.417L1032.94 246.406L1088.33 274.293ZM999.884 344.242L1013.45 340.243L988.593 283.435L984.285 285.074L999.884 344.242ZM912.953 340.77L900.166 334.729L927.892 280.18L932.199 281.824L912.953 340.77ZM828.986 267.519L834.171 280.677L888.553 250.884L886.539 246.737L828.986 267.519ZM815.238 188.755L818.519 174.998L877.604 190.908L876.882 195.461L815.238 188.755ZM867.342 87.5566L855.693 95.575L896.979 141.84L900.565 138.942L867.342 87.5566ZM950.434 58.634L964.55 59.4824L959.116 120.431L954.507 120.508L950.434 58.634ZM935 89.5L945.5 127.5V85.5L935 89.5ZM901.622 149.76L866.024 132.819L869.874 122.263L901.622 149.76ZM835.97 209.076L874.968 203.296L833.283 198.166L835.97 209.076ZM892.212 252.776L869.152 284.753L859.46 279.069L892.212 252.776ZM940.523 320.05L939.525 280.639L929.367 321.392L940.523 320.05ZM996.554 274.522L1019.19 306.799L1010.64 314.089L996.554 274.522ZM1075.53 244.771L1037.04 236.214L1074.13 255.921L1075.53 244.771ZM1029.99 181.264L1065.31 163.758L1071.23 173.31L1029.99 181.264ZM1013.49 103.144L998.254 139.506L1024.21 106.49L1013.49 103.144ZM972 128L982 90L972 86V128ZM897.172 97.6189L919.349 130.056L887.602 102.559L897.172 97.6189ZM878.702 177.056L842.208 162.489L837.016 171.925L878.702 177.056ZM840.119 247.789L876.012 231.798L843.26 258.091L840.119 247.789ZM913.933 273.744L895.039 308.197L903.775 314.497L913.933 273.744ZM974.745 322.092L971.421 282.939L985.507 322.506L974.745 322.092ZM1024.17 259.381L1053.03 286.042L1061.26 279.088L1024.17 259.381ZM1073.72 210.002L1034.52 207.379L1075.76 199.425L1073.72 210.002ZM1018.78 156.279L1050.13 132.588L1044.74 123.263L1018.78 156.279ZM958.5 232C974.24 232 987 219.24 987 203.5C987 187.76 974.24 175 958.5 175C942.76 175 930 187.76 930 203.5C930 219.24 942.76 232 958.5 232ZM954 135H964L960 171H957L954 135ZM921.235 147L913 152.673L935.894 180.617L938.365 178.915L921.235 147ZM891 200.999L891.149 191L927.085 195.535L927.041 198.535L891 200.999ZM1005.1 153.481L996.732 148L979.509 179.755L982.018 181.399L1005.1 153.481ZM1025.83 190L1026.8 199.953L990.582 199.466L990.291 196.48L1025.83 190ZM1013.8 243.2L1018.97 234.646L986.625 218.566L985.072 221.133L1013.8 243.2ZM983.5 267.439L973.948 270.397L967.121 234.824L969.987 233.937L983.5 267.439ZM931 266.632L940.62 269.363L947.564 233.911L944.678 233.092L931 266.632ZM901.732 241.845L897 233.035L930.607 219.524L932.027 222.167L901.732 241.845ZM927 129.478L934.941 126L945 166L927 129.478ZM991.526 131.229L983.479 128.001L970.04 166.436L991.526 131.229ZM1029.38 162.306L1033.54 169.91L994.584 183.451L1029.38 162.306ZM1039.29 226.905L1041.13 218.434L1001 211.574L1039.29 226.905ZM1011.38 268.104L1004.7 273.638L984 237.966L1011.38 268.104ZM952.419 287.986L961.076 287.516L957.036 247L952.419 287.986ZM908.433 271.53L901.295 266.609L930.009 237L908.433 271.53ZM874.007 213.732L875.365 222.295L915.251 214.111L874.007 213.732ZM887.209 164.573L892.078 157.4L921.894 185.898L887.209 164.573Z" fill="black"/>
</svg>
