<svg width="1920" height="870" viewBox="0 0 1920 870" fill="none" xmlns="http://www.w3.org/2000/svg">
<path d="M945.522 202.375L942.001 203.322L942 203.5C942 203.677 942.003 203.853 942.008 204.029L945.524 204.653C945.491 204.273 945.474 203.888 945.474 203.5C945.474 203.121 945.49 202.746 945.522 202.375Z" fill="black"/>
<path d="M943.637 196.327C943.123 197.389 942.72 198.515 942.442 199.689L945.914 200.128C946.096 199.448 946.332 198.79 946.616 198.158L943.637 196.327Z" fill="black"/>
<path d="M946.663 198.054C947.091 197.127 947.624 196.258 948.247 195.464L945.614 193.194C945.263 193.632 944.934 194.088 944.629 194.561L945.723 195.508L944.422 194.889C944.29 195.105 944.162 195.324 944.04 195.546L946.663 198.054Z" fill="black"/>
<path d="M945.043 206.967L942.486 207.492C942.744 208.532 943.102 209.533 943.547 210.484L946.777 209.186C946.162 207.92 945.746 206.54 945.569 205.085L942.114 205.448C942.173 205.954 942.255 206.452 942.36 206.942L945.043 206.967Z" fill="black"/>
<path d="M948.034 216.257C949.192 217.207 950.48 218.003 951.869 218.613L953.182 215.395C951.447 214.618 949.914 213.473 948.68 212.06L947.047 214.585L948.084 214.167L948.263 214.453L947.062 215.393C947.234 215.558 947.409 215.719 947.588 215.877L949.51 213.896L948.034 216.257Z" fill="black"/>
<path d="M958.443 220C958.294 220 958.145 219.997 957.997 219.993L957.989 219.91L958.433 219.883L958.443 220Z" fill="black"/>
<path d="M957.691 216.922L957.71 217.109L957.75 216.505C956.714 216.446 955.71 216.267 954.753 215.979L954.083 219.402C955.133 219.693 956.225 219.883 957.349 219.96L957.691 216.922Z" fill="black"/>
<path d="M968.242 216.818C968.475 216.648 968.703 216.472 968.926 216.29L968.015 215.448L969.187 216.071C969.546 215.766 969.892 215.445 970.224 215.11L968.072 212.335C967.418 213.044 966.686 213.679 965.89 214.229L968.242 216.818Z" fill="black"/>
<path d="M965.88 214.235C965.171 214.724 964.411 215.144 963.61 215.486L964.91 218.708C965.865 218.306 966.775 217.815 967.628 217.247L965.88 214.235Z" fill="black"/>
<path d="M974.761 206.314C974.731 206.486 974.699 206.656 974.665 206.826L971.238 206.24L971.271 206.081L974.761 206.314Z" fill="black"/>
<path d="M974.488 207.596L971.227 206.291C971.021 207.233 970.713 208.136 970.316 208.99L973.428 210.537C973.87 209.602 974.227 208.618 974.488 207.596Z" fill="black"/>
<path d="M972.863 195.374C972.468 194.676 972.024 194.011 971.535 193.382L969.109 195.939C969.392 196.336 969.654 196.75 969.893 197.179L972.863 195.374Z" fill="black"/>
<path d="M969.992 197.361C970.473 198.259 970.851 199.22 971.112 200.228L974.278 198.659C974.019 197.812 973.693 196.993 973.306 196.209L969.992 197.361Z" fill="black"/>
<path d="M962.748 189.159L963.046 188.478L962.166 190.997C961.48 190.796 960.77 190.65 960.043 190.564L960.696 187.145C961.321 187.228 961.936 187.346 962.537 187.498L962.158 188.935L962.748 189.159Z" fill="black"/>
<path d="M964.354 188.068L962.503 191.101C963.052 191.278 963.586 191.49 964.1 191.735L965.444 188.528C965.228 188.428 965.01 188.332 964.79 188.241C964.646 188.182 964.5 188.124 964.354 188.068Z" fill="black"/>
<path d="M952.033 188.315L953.572 191.438C952.745 191.777 951.96 192.197 951.229 192.69L949.579 189.617C950.355 189.118 951.175 188.681 952.033 188.315Z" fill="black"/>
<path d="M953.784 191.354C955.129 190.832 956.583 190.525 958.102 190.479L957.813 187.014C956.645 187.062 955.509 187.231 954.416 187.509L955.027 189.38L954.437 189.605L953.705 188.164V191.04L953.784 191.354Z" fill="black"/>
<path d="M950.008 193.621L947.811 190.939L947.806 190.935C947.589 191.12 947.377 191.31 947.17 191.505L947.057 191.613L946.907 191.759L947.604 192.823L949.051 193.616L948.776 194.184L948.407 194.051L948.859 194.74C949.219 194.344 949.603 193.97 950.008 193.621Z" fill="black"/>
<path d="M967.586 194.165C967.858 194.431 968.12 194.708 968.368 194.997L969.071 194.103L968.82 194.229L968.509 193.68L969.996 192.616L970.322 191.989L970.19 191.855C970.064 191.729 969.935 191.604 969.805 191.481L967.586 194.165Z" fill="black"/>
<path d="M966.471 193.196L968.145 190.111C967.704 189.793 967.248 189.497 966.776 189.223L964.602 191.988C965.261 192.338 965.886 192.743 966.471 193.196Z" fill="black"/>
<path d="M971.433 201.933L971.414 201.784L974.917 201.831L974.941 202.096L971.433 201.933Z" fill="black"/>
<path d="M971.511 202.858C971.521 203.071 971.526 203.285 971.526 203.5C971.526 204.253 971.462 204.992 971.339 205.71L974.931 205.018C974.945 204.866 974.957 204.713 974.966 204.561L973.519 204.665L973.436 204.338L974.998 203.764L975 203.57L971.511 202.858Z" fill="black"/>
<path d="M969.557 210.39C969.452 210.558 969.343 210.724 969.231 210.887C969.142 211.016 969.051 211.143 968.958 211.268L971.498 213.666C971.629 213.498 971.757 213.328 971.882 213.155C971.966 213.04 972.048 212.923 972.128 212.805C972.194 212.709 972.258 212.612 972.322 212.515L971.325 211.749L970.357 211.234L970.777 211.328L969.557 210.39Z" fill="black"/>
<path d="M959.161 216.51C960.164 216.459 961.137 216.296 962.068 216.032L962.724 219.454C961.381 219.809 959.97 219.999 958.515 220L958.472 219.88L959.456 219.821L959.161 216.51Z" fill="black"/>
<path d="M947.922 211.104C947.811 210.95 947.704 210.793 947.599 210.635L944.686 212.527C944.961 212.947 945.254 213.353 945.565 213.745L947.922 211.104Z" fill="black"/>
<path d="M952.768 225.263L952.844 225.283L952.774 225.48L952.768 225.263Z" fill="black"/>
<path d="M965.526 203.5C965.526 207.38 962.381 210.526 958.5 210.526C954.619 210.526 951.474 207.38 951.474 203.5C951.474 199.62 954.619 196.474 958.5 196.474C962.381 196.474 965.526 199.62 965.526 203.5Z" fill="black"/>
<path fill-rule="evenodd" clip-rule="evenodd" d="M0 0H1920V870H0V0ZM938.505 193.172C937.646 194.832 936.988 196.612 936.562 198.48L934.915 197.823L933.971 199.54L936.298 199.826C936.102 201.021 936 202.249 936 203.5C936 203.886 936.01 204.269 936.029 204.65L933.292 204.313L933.78 206.298L936.132 205.949C936.166 206.264 936.206 206.576 936.253 206.887L932.558 206.853L932.969 209.444L936.604 208.699C936.869 209.819 937.217 210.907 937.643 211.956L934.535 213.34L935.106 215.214L938.035 212.863C938.716 214.351 939.555 215.75 940.53 217.042L938.053 219.03L939.816 220.064L940.931 218.518L941.634 219.641L942.303 219.118C942.659 219.487 943.028 219.844 943.408 220.188L940.818 222.858L942.979 224.348L944.836 221.377C945.141 221.611 945.454 221.837 945.772 222.056L944.525 224.329L946.115 225.475L946.8 222.723C948.191 223.571 949.681 224.273 951.249 224.806L950.77 226.729L952.401 226.533L951.819 228.172L954.483 228.617L954.662 225.674C955.324 225.788 955.996 225.873 956.677 225.927L956.294 229.329L958.914 229.187L958.596 226C958.715 226 958.833 225.998 958.952 225.996L959.025 226.856L960.982 226.932L960.616 225.902C962.264 225.748 963.86 225.417 965.386 224.927L965.554 225.4L966.441 227.941L968.798 226.622L967.144 224.28C968.369 223.77 969.54 223.153 970.645 222.444L972.12 224.986L974.14 223.311L972.293 221.278C973.696 220.188 974.966 218.936 976.076 217.549L978.2 218.894L979.225 216.395L977.319 215.838C978.521 214.007 979.464 211.991 980.094 209.841L982.589 210.84L983.148 208.276L980.582 207.837C980.818 206.632 980.957 205.392 980.991 204.126L982 204.053L981.338 201.435L980.92 201.589C980.701 198.984 980.038 196.505 979.007 194.229L980.85 193.588L979.589 191.286L977.993 192.256C975.602 188.118 971.93 184.812 967.52 182.88L968.131 181.879L965.695 180.902L965.586 181.215L964.294 180.834L964.067 181.694C962.287 181.241 960.422 181 958.5 181C956.44 181 954.446 181.277 952.55 181.795L952.392 181.31L951.378 181.789L951.003 180.296L948.599 181.349L949.377 182.926C947.192 183.896 945.191 185.205 943.439 186.784L943.173 186.921L943.232 186.973C942.05 188.065 940.986 189.282 940.06 190.604L939.948 190.506L939.742 191.071C939.692 191.146 939.642 191.221 939.594 191.297L938.028 189.801L936.554 191.972L938.505 193.172Z" fill="black"/>
</svg>
