<svg width="1920" height="870" viewBox="0 0 1920 870" fill="none" xmlns="http://www.w3.org/2000/svg">
<path d="M969 203.5C969 209.299 964.299 214 958.5 214C952.701 214 948 209.299 948 203.5C948 197.701 952.701 193 958.5 193C964.299 193 969 197.701 969 203.5Z" fill="black"/>
<path fill-rule="evenodd" clip-rule="evenodd" d="M958.5 226C970.926 226 981 215.927 981 203.5C981 191.073 970.926 181 958.5 181C946.074 181 936 191.073 936 203.5C936 215.927 946.074 226 958.5 226ZM975 203.5C975 212.613 967.613 220 958.5 220C949.387 220 942 212.613 942 203.5C942 194.387 949.387 187 958.5 187C967.613 187 975 194.387 975 203.5Z" fill="black"/>
<path fill-rule="evenodd" clip-rule="evenodd" d="M0 0H1920V870H0V0ZM819.848 231.646V214.662L872.497 220.182V222.305L819.848 231.646ZM857.212 306.501L869.58 318.141L898.859 273.398L897.313 271.943L857.212 306.501ZM967.446 342.034L950.464 342.257L955.292 289.54L957.414 289.512L967.446 342.034ZM1034.83 318.907L1049 309.55L1012.2 270.759L1010.42 271.929L1034.83 318.907ZM1099.66 226.468L1095.49 242.934L1045.8 224.678L1046.32 222.62L1099.66 226.468ZM1082.2 148.856L1075.76 133.141L1030.59 161.751L1031.4 163.716L1082.2 148.856ZM1001.82 76.2458L1016.63 84.5422L986.1 127.786L984.248 126.749L1001.82 76.2458ZM926.613 72L909.861 74.7944L927.738 125.189L929.832 124.84L926.613 72ZM836.797 142.837L845.814 128.444L887.5 161.073L886.373 162.872L836.797 142.837ZM1027.5 113.676L1035.62 121.79L999.507 155.872L996.667 153.438L1027.5 113.676ZM1073.98 190.254L1073.12 178.811L1023.81 188.867L1024.38 192.564L1073.98 190.254ZM1063.88 260.383L1057.47 269.904L1017.09 241.009L1018.94 237.754L1063.88 260.383ZM992.11 317.144L1003.12 313.899L982.947 267.801L979.451 269.131L992.11 317.144ZM921.568 314.326L911.192 309.424L933.691 265.16L937.186 266.494L921.568 314.326ZM853.432 254.886L857.64 265.563L901.769 241.387L900.134 238.022L853.432 254.886ZM842.276 190.971L844.938 179.809L892.884 192.719L892.298 196.413L842.276 190.971ZM884.557 108.853L875.104 115.359L908.606 152.901L911.516 150.551L884.557 108.853ZM951.982 85.3835L963.438 86.0718L959.028 135.529L955.288 135.592L951.982 85.3835ZM939.527 115.118L947.711 144.739V112L939.527 115.118ZM913.509 162.091L885.76 148.885L888.761 140.656L913.509 162.091ZM862.333 208.327L892.732 203.822L860.238 199.823L862.333 208.327ZM906.173 242.391L888.198 267.317L880.643 262.886L906.173 242.391ZM943.832 294.831L943.054 264.11L935.136 295.877L943.832 294.831ZM987.508 259.342L1005.15 284.502L998.488 290.185L987.508 259.342ZM1049.07 236.152L1019.07 229.481L1047.98 244.843L1049.07 236.152ZM1013.57 186.647L1041.1 173.001L1045.72 180.448L1013.57 186.647ZM1000.71 125.754L988.833 154.098L1009.07 128.362L1000.71 125.754ZM968.368 145.129L976.163 115.508L968.368 112.39V145.129ZM910.04 121.447L927.327 146.731L902.58 125.297L910.04 121.447ZM895.642 183.367L867.195 172.012L863.149 179.368L895.642 183.367ZM865.567 238.503L893.546 226.039L868.016 246.534L865.567 238.503ZM923.105 258.736L908.377 285.592L915.187 290.503L923.105 258.736ZM970.508 296.422L967.917 265.903L978.897 296.745L970.508 296.422ZM1009.03 247.54L1031.53 268.322L1037.94 262.901L1009.03 247.54ZM1047.66 209.049L1017.1 207.004L1049.25 200.804L1047.66 209.049ZM1004.83 167.172L1029.27 148.705L1025.07 141.436L1004.83 167.172ZM983.721 216.784C985.815 212.817 987 208.297 987 203.5C987 202.318 986.928 201.153 986.788 200.009L1015.77 200.399L1014.95 192.063L986.32 197.284C985.175 192.134 982.635 187.508 979.118 183.824L997.59 161.478L990.585 156.888L977.043 181.856C972.4 177.875 966.46 175.361 959.945 175.036L963.171 146H954.796L957.215 175.028C951.036 175.302 945.368 177.544 940.823 181.143L927.355 156.05L920.458 160.802L938.67 183.03C934.925 186.658 932.173 191.305 930.86 196.523L902.157 192.901L902.033 201.275L930.301 199.343C930.103 200.7 930 202.088 930 203.5C930 208.557 931.317 213.306 933.627 217.424L907.058 228.106L911.021 235.484L935.134 219.822C938.001 223.92 941.92 227.229 946.498 229.357L935.533 256.244L943.59 258.531L949.098 230.413C952.042 231.441 955.206 232 958.5 232C961.114 232 963.646 231.648 966.051 230.989L971.503 259.397L979.503 256.92L968.694 230.123C974.27 227.986 979.004 224.148 982.26 219.244L1004.88 236.619L1009.21 229.455L983.721 216.784ZM932.788 144.183L939.246 141.354L947.425 173.88L932.788 144.183ZM985.256 145.606L978.713 142.982L967.785 174.234L985.256 145.606ZM1016.04 170.876L1019.42 177.06L987.743 188.07L1016.04 170.876ZM1024.09 223.404L1025.59 216.516L992.96 210.938L1024.09 223.404ZM1001.4 256.904L995.973 261.404L979.137 232.398L1001.4 256.904ZM953.457 273.071L960.497 272.688L957.212 239.744L953.457 273.071ZM917.691 259.69L911.887 255.689L935.235 231.612L917.691 259.69ZM889.698 212.693L890.802 219.655L923.235 213.001L889.698 212.693ZM900.433 172.719L904.392 166.887L928.637 190.059L900.433 172.719Z" fill="black"/>
</svg>
