<svg width="1920" height="870" viewBox="0 0 1920 870" fill="none" xmlns="http://www.w3.org/2000/svg">
<path d="M937.458 195.514L941.304 197.878L937.842 194.569C939.14 191.571 941.071 188.912 943.467 186.759L947.275 191.406C945.06 193.463 943.411 196.121 942.588 199.12L936.589 198.362C936.817 197.387 937.108 196.436 937.458 195.514Z" fill="black"/>
<path d="M938.234 210.915L937.317 211.103C937.622 211.954 937.978 212.781 938.379 213.581L943.974 211.332C942.715 209.002 942 206.334 942 203.5C942 202.572 942.077 201.662 942.224 200.775L936.117 201.193C936.04 201.951 936 202.721 936 203.5C936 206.095 936.439 208.586 937.247 210.905L938.234 210.915Z" fill="black"/>
<path d="M945.031 221.525L945.053 221.49L945.024 221.52C943.002 220.005 941.243 218.158 939.828 216.059L944.861 212.79C946.537 215.245 948.858 217.224 951.58 218.483L949.312 224.045C947.788 223.362 946.353 222.515 945.031 221.525Z" fill="black"/>
<path d="M970.528 222.518L970 221.937L970.389 222.606C969.29 223.291 968.127 223.884 966.913 224.375L964.668 218.809C967.896 217.507 970.618 215.213 972.457 212.305L977.23 215.972C975.48 218.595 973.194 220.829 970.528 222.518Z" fill="black"/>
<path d="M977.855 209.742L980.013 210.11C980.655 208.02 981 205.8 981 203.5C981 202.733 980.962 201.975 980.887 201.227L974.833 201.146C974.943 201.915 975 202.701 975 203.5C975 206.142 974.379 208.638 973.276 210.852L978.65 213.523C979.125 212.568 979.535 211.576 979.873 210.55L977.855 209.742Z" fill="black"/>
<path d="M979.013 194.242L974.891 196.747L979.41 195.176C979.84 196.256 980.189 197.376 980.449 198.53L974.538 199.608C973.838 196.712 972.374 194.115 970.372 192.041L974.212 187.395C976.211 189.345 977.848 191.664 979.013 194.242Z" fill="black"/>
<path d="M960.135 181.059C962.131 181.202 964.056 181.606 965.875 182.237L963.894 187.902C962.495 187.418 961.012 187.118 959.471 187.028L960.135 181.059Z" fill="black"/>
<path d="M967.278 182.777L964.104 187.977C965.992 188.658 967.719 189.673 969.215 190.952L972.123 185.591C970.641 184.463 969.015 183.514 967.278 182.777Z" fill="black"/>
<path d="M949.185 183.013C947.945 183.577 946.766 184.251 945.659 185.021L948.523 190.356C949.542 189.582 950.654 188.922 951.839 188.399L949.185 183.013Z" fill="black"/>
<path d="M951.901 188.372L950.423 182.493C952.621 181.647 954.985 181.137 957.452 181.024L957.951 187.009C955.806 187.079 953.764 187.559 951.901 188.372Z" fill="black"/>
<path d="M952 225.047C954.058 225.667 956.24 226 958.5 226C960.478 226 962.396 225.745 964.224 225.266L963.089 219.354C961.632 219.774 960.093 220 958.5 220C956.632 220 954.836 219.689 953.162 219.117L952 225.047Z" fill="black"/>
<path d="M986.563 197.416L986.357 197.453L986.351 197.425L986.563 197.416Z" fill="black"/>
<path d="M922.842 194.517L930.825 196.666C930.918 196.287 931.019 195.91 931.127 195.537L922.842 194.517Z" fill="black"/>
<path d="M969 203.5C969 209.299 964.299 214 958.5 214C952.701 214 948 209.299 948 203.5C948 197.701 952.701 193 958.5 193C964.299 193 969 197.701 969 203.5Z" fill="black"/>
<path fill-rule="evenodd" clip-rule="evenodd" d="M0 0H1920V870H0V0ZM909.923 215.861V209.812L919.184 210.783L919.177 210.739L930.956 210.848C930.463 208.993 930.152 207.064 930.043 205.082L918.064 206.857L917.132 203.074L930.023 204.66C930.008 204.275 930 203.889 930 203.5C930 202.864 930.021 202.232 930.062 201.607L926.104 201.877L926.16 198.125L915.859 197.004L916.838 192.9L918.737 193.411L920.228 190.701L931.257 195.104C931.549 194.156 931.889 193.229 932.274 192.326L925.277 188.024L925.292 188.001L915.96 184.23L919.171 179.104L927.113 185.32L927.527 184.71L932.922 189.867L933.305 190.167C934.38 188.14 935.692 186.258 937.204 184.559L928.487 180.411L929.823 176.75L937.931 183.772C938.448 183.233 938.986 182.714 939.544 182.217L927.93 169.203L931.405 166.81L938.291 177.461L940.708 175.796L942.807 179.706C943.664 179.14 944.553 178.618 945.472 178.145L935.971 169.916L939.29 168.203L945.93 177.915C946.129 177.816 946.329 177.721 946.531 177.627L943.663 171.809L945.836 170.857L941.983 159.995L947.949 159L949.022 176.614C950.967 175.928 953.008 175.448 955.12 175.198L952.409 165.387L956.051 164V175.104C956.35 175.078 956.651 175.057 956.954 175.041L956.533 170H956.975L956.197 158.181L960.409 158.434L959.378 170H961.363L960.798 175.091C962.316 175.212 963.8 175.452 965.241 175.802V164.173L968.71 165.561L965.966 175.988C966.605 176.161 967.235 176.355 967.856 176.571L969.76 171.126L970.885 171.578L974.734 160.512L980.012 163.467L973.009 173.386L970.431 177.61C972.019 178.343 973.528 179.218 974.942 180.218L975.256 179.814L976.629 177.283L979.63 170.119L982.162 170.909L983.965 168.583L986.949 171.567L979.997 178.129L981.213 178.926L978.045 182.758C979.598 184.222 980.987 185.858 982.18 187.636L990.467 177.097L992.336 180.331L982.344 187.882C983.02 188.913 983.631 189.99 984.172 191.107L990.969 186.977L991.049 187.125L1001.07 180.776L1003.37 186.374L992.395 189.583L992.893 190.491L985.084 193.205C985.382 193.975 985.648 194.762 985.88 195.563L990.636 194.593L997.603 191.141L998.721 192.944L1000.74 192.533L1001.06 196.741L991.289 197.195L991.696 201.372L986.917 201.308C986.972 202.032 987 202.762 987 203.5C987 206.142 986.64 208.7 985.968 211.128L996.4 212.912L996.367 213.063L1009.58 214.017L1008.1 219.881L995.861 215.385L995.548 216.826L985.454 212.784C985.086 213.852 984.657 214.89 984.171 215.896L997.34 222.526L994.985 226.027L986.717 220.11L985.415 222.261L981.996 219.635C980.009 222.524 977.502 225.028 974.611 227.013L978.182 230.943L977.8 230.208L978.432 229.792L991.539 243.608L986.491 246.941L981.313 236.972L979.824 238.207L981.608 240.75L978.642 243.278L973.757 229.555L977.617 235.059L973.402 227.798C972.18 228.55 970.896 229.211 969.561 229.774L974.999 242.204L970.952 243.397L968.641 234.631L966.168 235.397L965.357 231.169C963.161 231.712 960.864 232 958.5 232C958.376 232 958.252 231.999 958.128 231.998L958.575 236.476L958.92 236.471L962.493 255.178L956.444 255.257L957.389 244.941L955.408 245.049L956.883 231.955C954.802 231.839 952.781 231.499 950.842 230.959L950.071 234.897L947.673 234.216L945.014 242.361L942.178 241.021L941.58 243.419L938.55 241.234L945.103 229.286L943.346 236.334L946.818 229.503C945.057 228.711 943.392 227.746 941.843 226.628L935.084 237.445L934.11 236.774L927.636 246.668L923.231 242.522L931.916 235.038L940.82 225.855C939.53 224.833 938.331 223.703 937.236 222.477L929.572 233.104L926.211 231.132L937.135 222.363C936.29 221.406 935.508 220.392 934.796 219.328L931.288 221.606L930.237 219.649L921.508 224.431L921.116 223.436L920.593 223.856L919.503 220.284L931.952 214.738L928.696 217.351L931.699 216.267L932.796 215.826C932.253 214.696 931.783 213.525 931.39 212.319L919.804 214.696L919.714 214.124L909.923 215.861ZM954.325 245.345L953.979 231.677L950.456 245.81L954.325 245.345ZM1001.15 219.237L987.799 216.27L1000.66 223.104L1001.15 219.237ZM966.193 246.053L965.041 232.474L969.926 246.197L966.193 246.053ZM983.333 224.304L993.344 233.55L996.196 231.139L983.333 224.304ZM1000.52 207.179L986.923 206.269L1001.23 203.511L1000.52 207.179Z" fill="black"/>
</svg>
