<svg fill="none" xmlns="http://www.w3.org/2000/svg">
<path d="M970.737 203.5C970.737 210.258 965.258 215.737 958.5 215.737C951.742 215.737 946.263 210.258 946.263 203.5C946.263 196.742 951.742 191.263 958.5 191.263C965.258 191.263 970.737 196.742 970.737 203.5Z" fill="black"/>
<path fill-rule="evenodd" clip-rule="evenodd" d="M958.5 229C972.583 229 984 217.583 984 203.5C984 189.417 972.583 178 958.5 178C944.417 178 933 189.417 933 203.5C933 217.583 944.417 229 958.5 229ZM976.737 203.5C976.737 213.572 968.572 221.737 958.5 221.737C948.428 221.737 940.263 213.572 940.263 203.5C940.263 193.428 948.428 185.263 958.5 185.263C968.572 185.263 976.737 193.428 976.737 203.5Z" fill="black"/>
<path fill-rule="evenodd" clip-rule="evenodd" d="M0 0H1920V870H0V0ZM772.222 239.992V217.226L842.794 224.625V227.471L772.222 239.992ZM822.306 340.33L838.884 355.931L878.13 295.957L876.058 294.007L822.306 340.33ZM970.066 387.958L947.302 388.257L953.773 317.595L956.619 317.557L970.066 387.958ZM1060.38 356.959L1079.38 344.416L1030.05 292.42L1027.67 293.988L1060.38 356.959ZM1147.28 233.051L1141.7 255.122L1075.1 230.653L1075.79 227.894L1147.28 233.051ZM1123.89 129.019L1115.26 107.954L1054.7 146.304L1055.78 148.937L1123.89 129.019ZM1016.13 31.6913L1036 42.8118L995.069 100.776L992.586 99.3864L1016.13 31.6913ZM915.332 26L892.877 29.7458L916.839 97.2954L919.646 96.8271L915.332 26ZM794.941 120.951L807.027 101.659L862.904 145.395L861.394 147.806L794.941 120.951ZM1053.03 81.475L1064.16 92.5986L1014.66 139.318L1010.76 135.981L1053.03 81.475ZM1116.75 186.45L1115.56 170.763L1047.98 184.548L1048.76 189.617L1116.75 186.45ZM1102.9 282.584L1094.12 295.636L1038.77 256.025L1041.29 251.564L1102.9 282.584ZM1004.52 360.393L1019.61 355.945L991.958 292.753L987.165 294.576L1004.52 360.393ZM907.818 356.531L893.595 349.811L924.436 289.133L929.227 290.961L907.818 356.531ZM814.416 275.049L820.184 289.685L880.677 256.544L878.436 251.932L814.416 275.049ZM799.123 187.433L802.772 172.131L868.498 189.828L867.694 194.893L799.123 187.433ZM857.082 74.8636L844.124 83.783L890.05 135.246L894.038 132.024L857.082 74.8636ZM949.51 42.6912L965.214 43.6349L959.169 111.432L954.042 111.518L949.51 42.6912ZM931.686 70.7446L943.881 114.879V66.0989L931.686 70.7446ZM892.919 140.733L851.574 121.056L856.047 108.796L892.919 140.733ZM816.669 209.624L861.963 202.911L813.548 196.953L816.669 209.624ZM881.99 260.379L855.208 297.518L843.951 290.916L881.99 260.379ZM938.1 338.513L936.942 292.74L925.143 340.072L938.1 338.513ZM1003.18 285.635L1029.47 323.123L1019.54 331.59L1003.18 285.635ZM1094.9 251.082L1050.2 241.143L1093.28 264.031L1094.9 251.082ZM1042.01 177.322L1083.04 156.99L1089.91 168.084L1042.01 177.322ZM1022.84 86.5917L1005.15 128.823L1035.3 90.4774L1022.84 86.5917ZM974.659 115.46L986.273 71.3253L974.659 66.6796V115.46ZM887.751 80.174L913.508 117.848L876.636 85.9116L887.751 80.174ZM866.299 172.435L823.914 155.516L817.884 166.476L866.299 172.435ZM821.488 254.586L863.176 236.014L825.136 266.552L821.488 254.586ZM907.218 284.732L885.274 324.747L895.42 332.064L907.218 284.732ZM977.847 340.884L973.986 295.411L990.347 341.366L977.847 340.884ZM1035.25 268.05L1068.77 299.015L1078.32 290.938L1035.25 268.05ZM1092.8 210.699L1047.27 207.653L1095.16 198.415L1092.8 210.699ZM1028.99 148.304L1065.4 120.789L1059.14 109.958L1028.99 148.304ZM958.5 235C975.897 235 990 220.897 990 203.5C990 186.103 975.897 172 958.5 172C941.103 172 927 186.103 927 203.5C927 220.897 941.103 235 958.5 235ZM953.192 123.834H964.841L960.181 165.772H956.687L953.192 123.834ZM915.022 137.813L905.429 144.422L932.1 176.975L934.978 174.992L915.022 137.813ZM879.801 200.719L879.974 189.07L921.838 194.354L921.786 197.848L879.801 200.719ZM1012.72 145.363L1002.97 138.978L982.908 175.97L985.831 177.886L1012.72 145.363ZM1036.87 187.906L1038 199.5L995.808 198.932L995.469 195.454L1036.87 187.906ZM1022.85 249.88L1028.88 239.915L991.198 221.183L989.388 224.173L1022.85 249.88ZM987.558 278.118L976.43 281.563L968.477 240.123L971.816 239.09L987.558 278.118ZM926.398 277.177L937.605 280.358L945.694 239.06L942.332 238.105L926.398 277.177ZM892.303 248.302L886.79 238.039L925.94 222.299L927.594 225.378L892.303 248.302ZM919.777 111.128L929.57 106.838L941.974 156.166L919.777 111.128ZM999.349 113.287L989.427 109.307L972.853 156.704L999.349 113.287ZM1046.03 151.611L1051.17 160.989L1003.12 177.687L1046.03 151.611ZM1058.25 231.275L1060.53 220.828L1011.03 212.368L1058.25 231.275ZM1023.83 282.081L1015.6 288.906L990.069 244.915L1023.83 282.081ZM951.124 306.599L961.799 306.019L956.817 256.055L951.124 306.599ZM896.88 286.306L888.078 280.238L923.487 243.724L896.88 286.306ZM854.426 215.03L856.101 225.589L905.288 215.497L854.426 215.03ZM870.706 154.406L876.711 145.56L913.48 180.704L870.706 154.406Z" fill="black"/>
</svg>
