<svg width="1920" height="870" viewBox="0 0 1920 870" fill="none" xmlns="http://www.w3.org/2000/svg">
<path d="M969 203.5C969 209.299 964.299 214 958.5 214C952.701 214 948 209.299 948 203.5C948 197.701 952.701 193 958.5 193C964.299 193 969 197.701 969 203.5Z" fill="black"/>
<path fill-rule="evenodd" clip-rule="evenodd" d="M949.101 223.949C945.403 222.247 942.246 219.571 939.958 216.25L942.238 214.769L941.358 213.13L938.701 214.198C936.978 211.017 936 207.373 936 203.5C936 202.419 936.076 201.357 936.223 200.317L939.147 200.117L939.174 198.257L936.691 197.944C937.761 193.734 940.017 189.998 943.083 187.112L944.636 189.007L946.168 187.952L944.894 185.579C948.438 182.884 952.806 181.216 957.553 181.02L957.722 183.045H959.582L959.805 181.037C964.775 181.321 969.313 183.218 972.904 186.213L971.678 188.473L973.234 189.492L974.626 187.809C977.452 190.712 979.5 194.377 980.435 198.465L978.363 198.843L978.544 200.694L980.831 200.725C980.942 201.634 981 202.561 981 203.5C981 207.192 980.111 210.677 978.534 213.751L976.091 212.537L975.127 214.128L977.33 215.82C974.793 219.689 971.096 222.729 966.734 224.446L965.774 222.067L963.998 222.617L964.492 225.193C962.584 225.719 960.575 226 958.5 226C955.992 226 953.58 225.59 951.327 224.833L951.872 222.051L950.082 221.543L949.101 223.949ZM975 203.5C975 212.613 967.613 220 958.5 220C949.387 220 942 212.613 942 203.5C942 194.387 949.387 187 958.5 187C967.613 187 975 194.387 975 203.5Z" fill="black"/>
<path fill-rule="evenodd" clip-rule="evenodd" d="M0 0H1920V870H0V0ZM874.721 222.03V211.708L903.727 214.748L903.259 211.794L930.135 212.041L904.144 217.374L904.057 216.825L874.721 222.03ZM897.43 267.525L904.948 274.6L922.734 247.418L925.692 249.458L939.751 226.956L921.041 246.251L921.639 246.663L897.43 267.525ZM964.429 289.122L954.107 289.257L956.782 260.048L954.355 260.18L957.363 233.472L959.996 259.874L958.854 259.936L964.429 289.122ZM1005.38 275.066L1013.99 269.378L991.627 245.802L991.537 245.862L974.934 227.586L988.426 250.831L991.478 248.3L1005.38 275.066ZM1044.78 218.883L1042.25 228.89L1012.05 217.795L1012.37 216.544L1044.78 218.883ZM1034.18 171.711L1030.26 162.16L1004.58 178.424L1004.51 178.283L983.994 190.747C982.576 187.918 980.701 185.357 978.466 183.163L987.543 172.183L982.357 168.784L975.809 180.856C973.577 179.148 971.086 177.762 968.404 176.768L979.838 158.032L977.146 156.952L994.325 132.623L985.318 127.581L975.351 156.232L974.595 155.929L967.427 176.426C965.215 175.697 962.883 175.231 960.469 175.067L962.062 160.724H955.862L957.055 175.036C954.072 175.185 951.211 175.792 948.539 176.789L942.965 154.625L941.456 155.286L939.611 125L929.43 126.698L939.824 156L937.791 156.891L947.749 177.097C945.714 177.927 943.797 178.985 942.028 180.239L935.547 168.164L930.441 171.682L939.273 182.462C936.43 185.062 934.115 188.231 932.51 191.789L915.034 175.085L913.518 177.32L890.503 159.306L885.023 168.053L912.319 179.085L911.861 179.76L932.279 192.313C931.614 193.872 931.083 195.501 930.701 197.188L916.893 195.445L916.801 201.645L930.133 200.733C930.045 201.644 930 202.566 930 203.5C930 208.163 931.12 212.563 933.104 216.449L920.521 221.508L923.455 226.97L934.925 219.52C937.878 223.858 941.998 227.338 946.833 229.51L941.602 242.338L947.341 243.968L942.298 264.197L947.94 263.519L947.446 243.998L947.566 244.032L950.165 230.762C952.802 231.567 955.6 232 958.5 232C960.961 232 963.348 231.688 965.626 231.102L968.23 244.673L974.153 242.839L968.979 230.012C974.341 227.891 978.905 224.19 982.099 219.484L992.936 227.81L996.148 222.506L983.909 216.423C984.868 214.541 985.624 212.538 986.148 210.442L1010.96 220.378L1012.16 214.858L986.156 210.412C986.707 208.199 987 205.884 987 203.5C987 202.591 986.957 201.693 986.874 200.806L1001 200.996L1000.4 194.825L986.343 197.388C985.872 195.233 985.158 193.17 984.23 191.228L1007.22 183.238L1005.5 180.099L1034.18 171.711ZM1007.37 139.067L1013.11 144.809L987.56 168.925L985.55 167.203L1007.37 139.067ZM1040.26 193.253L1039.65 185.156L1004.76 192.272L1005.16 194.889L1040.26 193.253ZM1033.11 242.876L1028.58 249.614L1000 229.167L1001.31 226.864L1033.11 242.876ZM982.325 283.041L990.114 280.744L975.842 248.125L973.368 249.066L982.325 283.041ZM932.411 281.046L925.069 277.578L940.989 246.257L943.461 247.201L932.411 281.046ZM884.198 238.987L887.175 246.542L918.401 229.435L917.244 227.054L884.198 238.987ZM876.304 193.761L878.188 185.863L912.114 194.998L911.699 197.612L876.304 193.761ZM906.221 135.655L899.533 140.259L923.239 166.823L925.298 165.16L906.221 135.655ZM953.932 119.048L962.037 119.535L958.917 154.531L956.271 154.575L953.932 119.048ZM945.147 146.926L950.457 166.143V144.903L945.147 146.926ZM928.267 177.4L910.265 168.833L912.212 163.494L928.267 177.4ZM895.066 207.397L914.788 204.475L893.707 201.88L895.066 207.397ZM923.508 229.498L911.847 245.668L906.945 242.794L923.508 229.498ZM976.276 240.495L987.724 256.818L983.4 260.504L976.276 240.495ZM1016.21 225.449L996.752 221.122L1015.51 231.088L1016.21 225.449ZM993.185 193.332L1011.05 184.479L1014.04 189.31L993.185 193.332ZM984.84 153.826L977.136 172.215L990.264 155.518L984.84 153.826ZM963.859 166.396L968.916 147.179L963.859 145.156V166.396ZM926.017 151.031L937.232 167.436L921.177 153.53L926.017 151.031ZM916.676 191.204L898.22 183.837L895.595 188.609L916.676 191.204ZM897.164 226.975L915.316 218.888L898.753 232.185L897.164 226.975ZM934.493 240.102L924.938 257.525L929.356 260.711L934.493 240.102ZM965.247 264.551L963.566 244.751L970.69 264.761L965.247 264.551ZM990.24 232.837L1004.84 246.32L1009 242.804L990.24 232.837ZM1015.3 207.866L995.474 206.539L1016.33 202.517L1015.3 207.866ZM987.514 180.697L1003.37 168.716L1000.64 164L987.514 180.697Z" fill="black"/>
</svg>
