<svg id="visual" viewBox="0 0 900 150" width="900" height="150" xmlns="http://www.w3.org/2000/svg" xmlns:xlink="http://www.w3.org/1999/xlink" version="1.1"><rect x="0" y="0" width="900" height="150" fill="#00000000"></rect><path d="M0 117L30 113.5C60 110 120 103 180 103.3C240 103.7 300 111.3 360 111C420 110.7 480 102.3 540 90.2C600 78 660 62 720 61.3C780 60.7 840 75.3 870 82.7L900 90L900 0L870 0C840 0 780 0 720 0C660 0 600 0 540 0C480 0 420 0 360 0C300 0 240 0 180 0C120 0 60 0 30 0L0 0Z" fill="#b889f4"></path><path d="M0 96L30 89.2C60 82.3 120 68.7 180 59C240 49.3 300 43.7 360 43.3C420 43 480 48 540 53C600 58 660 63 720 64C780 65 840 62 870 60.5L900 59L900 0L870 0C840 0 780 0 720 0C660 0 600 0 540 0C480 0 420 0 360 0C300 0 240 0 180 0C120 0 60 0 30 0L0 0Z" fill="#cca6f7"></path><path d="M0 44L30 43.5C60 43 120 42 180 42C240 42 300 43 360 48.7C420 54.3 480 64.7 540 61C600 57.3 660 39.7 720 36.3C780 33 840 44 870 49.5L900 55L900 0L870 0C840 0 780 0 720 0C660 0 600 0 540 0C480 0 420 0 360 0C300 0 240 0 180 0C120 0 60 0 30 0L0 0Z" fill="#dec3fa"></path><path d="M0 56L30 55.7C60 55.3 120 54.7 180 48.8C240 43 300 32 360 25.8C420 19.7 480 18.3 540 22.3C600 26.3 660 35.7 720 38.3C780 41 840 37 870 35L900 33L900 0L870 0C840 0 780 0 720 0C660 0 600 0 540 0C480 0 420 0 360 0C300 0 240 0 180 0C120 0 60 0 30 0L0 0Z" fill="#efe1fd"></path><path d="M0 37L30 34.3C60 31.7 120 26.3 180 22.3C240 18.3 300 15.7 360 14.5C420 13.3 480 13.7 540 16.8C600 20 660 26 720 29.2C780 32.3 840 32.7 870 32.8L900 33L900 0L870 0C840 0 780 0 720 0C660 0 600 0 540 0C480 0 420 0 360 0C300 0 240 0 180 0C120 0 60 0 30 0L0 0Z" fill="#ffffff"></path></svg>