<svg id="visual" viewBox="0 0 900 150" width="900" height="150" xmlns="http://www.w3.org/2000/svg" xmlns:xlink="http://www.w3.org/1999/xlink" version="1.1"><rect x="0" y="0" width="900" height="150" fill="#00000000"></rect><path d="M0 98L129 125L257 114L386 125L514 111L643 105L771 101L900 127L900 151L771 151L643 151L514 151L386 151L257 151L129 151L0 151Z" fill="#f5730a"></path><path d="M0 129L129 104L257 131L386 115L514 129L643 109L771 111L900 127L900 151L771 151L643 151L514 151L386 151L257 151L129 151L0 151Z" fill="#d15308"></path><path d="M0 121L129 136L257 125L386 123L514 119L643 135L771 131L900 136L900 151L771 151L643 151L514 151L386 151L257 151L129 151L0 151Z" fill="#ac3505"></path><path d="M0 134L129 139L257 141L386 130L514 128L643 133L771 133L900 129L900 151L771 151L643 151L514 151L386 151L257 151L129 151L0 151Z" fill="#871400"></path></svg>