<svg id="visual" viewBox="0 0 900 150" width="900" height="150" xmlns="http://www.w3.org/2000/svg" xmlns:xlink="http://www.w3.org/1999/xlink" version="1.1"><rect x="0" y="0" width="900" height="150" fill="#000000"></rect><path d="M0 75L30 70.8C60 66.7 120 58.3 180 57.5C240 56.7 300 63.3 360 64.2C420 65 480 60 540 58.3C600 56.7 660 58.3 720 61.8C780 65.3 840 70.7 870 73.3L900 76L900 0L870 0C840 0 780 0 720 0C660 0 600 0 540 0C480 0 420 0 360 0C300 0 240 0 180 0C120 0 60 0 30 0L0 0Z" fill="#b889f4"></path><path d="M0 80L30 78.8C60 77.7 120 75.3 180 67C240 58.7 300 44.3 360 45.2C420 46 480 62 540 73.5C600 85 660 92 720 93.2C780 94.3 840 89.7 870 87.3L900 85L900 0L870 0C840 0 780 0 720 0C660 0 600 0 540 0C480 0 420 0 360 0C300 0 240 0 180 0C120 0 60 0 30 0L0 0Z" fill="#cca6f7"></path><path d="M0 77L30 67.8C60 58.7 120 40.3 180 36C240 31.7 300 41.3 360 49.2C420 57 480 63 540 66.3C600 69.7 660 70.3 720 65.3C780 60.3 840 49.7 870 44.3L900 39L900 0L870 0C840 0 780 0 720 0C660 0 600 0 540 0C480 0 420 0 360 0C300 0 240 0 180 0C120 0 60 0 30 0L0 0Z" fill="#dec3fa"></path><path d="M0 22L30 21.3C60 20.7 120 19.3 180 20.8C240 22.3 300 26.7 360 27.2C420 27.7 480 24.3 540 23.7C600 23 660 25 720 24.7C780 24.3 840 21.7 870 20.3L900 19L900 0L870 0C840 0 780 0 720 0C660 0 600 0 540 0C480 0 420 0 360 0C300 0 240 0 180 0C120 0 60 0 30 0L0 0Z" fill="#efe1fd"></path><path d="M0 23L30 23.3C60 23.7 120 24.3 180 25.8C240 27.3 300 29.7 360 28C420 26.3 480 20.7 540 21.3C600 22 660 29 720 31.7C780 34.3 840 32.7 870 31.8L900 31L900 0L870 0C840 0 780 0 720 0C660 0 600 0 540 0C480 0 420 0 360 0C300 0 240 0 180 0C120 0 60 0 30 0L0 0Z" fill="#ffffff"></path></svg>