<svg id="visual" viewBox="0 0 900 150" width="900" height="150" xmlns="http://www.w3.org/2000/svg" xmlns:xlink="http://www.w3.org/1999/xlink" version="1.1"><rect x="0" y="0" width="900" height="150" fill="#00000000"></rect><path d="M0 92L21.5 94.8C43 97.7 86 103.3 128.8 106.3C171.7 109.3 214.3 109.7 257.2 106C300 102.3 343 94.7 385.8 91.5C428.7 88.3 471.3 89.7 514.2 94C557 98.3 600 105.7 642.8 110.3C685.7 115 728.3 117 771.2 118.2C814 119.3 857 119.7 878.5 119.8L900 120L900 0L878.5 0C857 0 814 0 771.2 0C728.3 0 685.7 0 642.8 0C600 0 557 0 514.2 0C471.3 0 428.7 0 385.8 0C343 0 300 0 257.2 0C214.3 0 171.7 0 128.8 0C86 0 43 0 21.5 0L0 0Z" fill="#90d8ed"></path><path d="M0 76L21.5 79.8C43 83.7 86 91.3 128.8 90.8C171.7 90.3 214.3 81.7 257.2 78.5C300 75.3 343 77.7 385.8 81.3C428.7 85 471.3 90 514.2 91C557 92 600 89 642.8 85.8C685.7 82.7 728.3 79.3 771.2 82.3C814 85.3 857 94.7 878.5 99.3L900 104L900 0L878.5 0C857 0 814 0 771.2 0C728.3 0 685.7 0 642.8 0C600 0 557 0 514.2 0C471.3 0 428.7 0 385.8 0C343 0 300 0 257.2 0C214.3 0 171.7 0 128.8 0C86 0 43 0 21.5 0L0 0Z" fill="#7dabe5"></path><path d="M0 68L21.5 64.5C43 61 86 54 128.8 51.3C171.7 48.7 214.3 50.3 257.2 55C300 59.7 343 67.3 385.8 68.3C428.7 69.3 471.3 63.7 514.2 60.2C557 56.7 600 55.3 642.8 53.8C685.7 52.3 728.3 50.7 771.2 53.3C814 56 857 63 878.5 66.5L900 70L900 0L878.5 0C857 0 814 0 771.2 0C728.3 0 685.7 0 642.8 0C600 0 557 0 514.2 0C471.3 0 428.7 0 385.8 0C343 0 300 0 257.2 0C214.3 0 171.7 0 128.8 0C86 0 43 0 21.5 0L0 0Z" fill="#9e74bb"></path><path d="M0 59L21.5 57.8C43 56.7 86 54.3 128.8 51.8C171.7 49.3 214.3 46.7 257.2 46C300 45.3 343 46.7 385.8 49C428.7 51.3 471.3 54.7 514.2 55.8C557 57 600 56 642.8 54C685.7 52 728.3 49 771.2 48.2C814 47.3 857 48.7 878.5 49.3L900 50L900 0L878.5 0C857 0 814 0 771.2 0C728.3 0 685.7 0 642.8 0C600 0 557 0 514.2 0C471.3 0 428.7 0 385.8 0C343 0 300 0 257.2 0C214.3 0 171.7 0 128.8 0C86 0 43 0 21.5 0L0 0Z" fill="#ad3668"></path><path d="M0 30L21.5 28.3C43 26.7 86 23.3 128.8 23.8C171.7 24.3 214.3 28.7 257.2 27.8C300 27 343 21 385.8 20.3C428.7 19.7 471.3 24.3 514.2 26.2C557 28 600 27 642.8 24.3C685.7 21.7 728.3 17.3 771.2 18.7C814 20 857 27 878.5 30.5L900 34L900 0L878.5 0C857 0 814 0 771.2 0C728.3 0 685.7 0 642.8 0C600 0 557 0 514.2 0C471.3 0 428.7 0 385.8 0C343 0 300 0 257.2 0C214.3 0 171.7 0 128.8 0C86 0 43 0 21.5 0L0 0Z" fill="#871400"></path></svg>