<svg id="visual" viewBox="0 0 900 150" width="900" height="150" xmlns="http://www.w3.org/2000/svg" xmlns:xlink="http://www.w3.org/1999/xlink" version="1.1"><rect x="0" y="0" width="900" height="150" fill="#00000000"></rect><path d="M0 115L21.5 115.2C43 115.3 86 115.7 128.8 110.2C171.7 104.7 214.3 93.3 257.2 88C300 82.7 343 83.3 385.8 83.5C428.7 83.7 471.3 83.3 514.2 83C557 82.7 600 82.3 642.8 89.2C685.7 96 728.3 110 771.2 113C814 116 857 108 878.5 104L900 100L900 0L878.5 0C857 0 814 0 771.2 0C728.3 0 685.7 0 642.8 0C600 0 557 0 514.2 0C471.3 0 428.7 0 385.8 0C343 0 300 0 257.2 0C214.3 0 171.7 0 128.8 0C86 0 43 0 21.5 0L0 0Z" fill="#e7554a"></path><path d="M0 75L21.5 74.5C43 74 86 73 128.8 72.8C171.7 72.7 214.3 73.3 257.2 76.7C300 80 343 86 385.8 90.5C428.7 95 471.3 98 514.2 96.5C557 95 600 89 642.8 84.8C685.7 80.7 728.3 78.3 771.2 80.8C814 83.3 857 90.7 878.5 94.3L900 98L900 0L878.5 0C857 0 814 0 771.2 0C728.3 0 685.7 0 642.8 0C600 0 557 0 514.2 0C471.3 0 428.7 0 385.8 0C343 0 300 0 257.2 0C214.3 0 171.7 0 128.8 0C86 0 43 0 21.5 0L0 0Z" fill="#f48374"></path><path d="M0 59L21.5 59.2C43 59.3 86 59.7 128.8 58C171.7 56.3 214.3 52.7 257.2 53.7C300 54.7 343 60.3 385.8 64.5C428.7 68.7 471.3 71.3 514.2 73.8C557 76.3 600 78.7 642.8 78.5C685.7 78.3 728.3 75.7 771.2 71C814 66.3 857 59.7 878.5 56.3L900 53L900 0L878.5 0C857 0 814 0 771.2 0C728.3 0 685.7 0 642.8 0C600 0 557 0 514.2 0C471.3 0 428.7 0 385.8 0C343 0 300 0 257.2 0C214.3 0 171.7 0 128.8 0C86 0 43 0 21.5 0L0 0Z" fill="#fdada0"></path><path d="M0 53L21.5 51.3C43 49.7 86 46.3 128.8 44C171.7 41.7 214.3 40.3 257.2 38.7C300 37 343 35 385.8 34C428.7 33 471.3 33 514.2 32.8C557 32.7 600 32.3 642.8 32.3C685.7 32.3 728.3 32.7 771.2 34.7C814 36.7 857 40.3 878.5 42.2L900 44L900 0L878.5 0C857 0 814 0 771.2 0C728.3 0 685.7 0 642.8 0C600 0 557 0 514.2 0C471.3 0 428.7 0 385.8 0C343 0 300 0 257.2 0C214.3 0 171.7 0 128.8 0C86 0 43 0 21.5 0L0 0Z" fill="#ffd6cf"></path><path d="M0 25L21.5 24.5C43 24 86 23 128.8 22.8C171.7 22.7 214.3 23.3 257.2 22.2C300 21 343 18 385.8 17C428.7 16 471.3 17 514.2 16.5C557 16 600 14 642.8 16.2C685.7 18.3 728.3 24.7 771.2 28.3C814 32 857 33 878.5 33.5L900 34L900 0L878.5 0C857 0 814 0 771.2 0C728.3 0 685.7 0 642.8 0C600 0 557 0 514.2 0C471.3 0 428.7 0 385.8 0C343 0 300 0 257.2 0C214.3 0 171.7 0 128.8 0C86 0 43 0 21.5 0L0 0Z" fill="#ffffff"></path></svg>