<svg id="visual" viewBox="0 0 900 150" width="900" height="150" xmlns="http://www.w3.org/2000/svg" xmlns:xlink="http://www.w3.org/1999/xlink" version="1.1"><rect x="0" y="0" width="900" height="150" fill="#00000000"></rect><path d="M0 40L30 39.3C60 38.7 120 37.3 180 46C240 54.7 300 73.3 360 76.3C420 79.3 480 66.7 540 58.3C600 50 660 46 720 54.3C780 62.7 840 83.3 870 93.7L900 104L900 151L870 151C840 151 780 151 720 151C660 151 600 151 540 151C480 151 420 151 360 151C300 151 240 151 180 151C120 151 60 151 30 151L0 151Z" fill="#b889f4"></path><path d="M0 117L30 108.3C60 99.7 120 82.3 180 77.7C240 73 300 81 360 80.3C420 79.7 480 70.3 540 65.5C600 60.7 660 60.3 720 70.5C780 80.7 840 101.3 870 111.7L900 122L900 151L870 151C840 151 780 151 720 151C660 151 600 151 540 151C480 151 420 151 360 151C300 151 240 151 180 151C120 151 60 151 30 151L0 151Z" fill="#cca6f7"></path><path d="M0 85L30 92.2C60 99.3 120 113.7 180 116C240 118.3 300 108.7 360 102.7C420 96.7 480 94.3 540 95.2C600 96 660 100 720 103.3C780 106.7 840 109.3 870 110.7L900 112L900 151L870 151C840 151 780 151 720 151C660 151 600 151 540 151C480 151 420 151 360 151C300 151 240 151 180 151C120 151 60 151 30 151L0 151Z" fill="#dec3fa"></path><path d="M0 113L30 109.2C60 105.3 120 97.7 180 94C240 90.3 300 90.7 360 93.3C420 96 480 101 540 101.5C600 102 660 98 720 95.5C780 93 840 92 870 91.5L900 91L900 151L870 151C840 151 780 151 720 151C660 151 600 151 540 151C480 151 420 151 360 151C300 151 240 151 180 151C120 151 60 151 30 151L0 151Z" fill="#efe1fd"></path><path d="M0 128L30 126.2C60 124.3 120 120.7 180 117.8C240 115 300 113 360 114C420 115 480 119 540 119.8C600 120.7 660 118.3 720 120C780 121.7 840 127.3 870 130.2L900 133L900 151L870 151C840 151 780 151 720 151C660 151 600 151 540 151C480 151 420 151 360 151C300 151 240 151 180 151C120 151 60 151 30 151L0 151Z" fill="#ffffff"></path></svg>