<svg id="visual" viewBox="0 0 900 150" width="900" height="150" xmlns="http://www.w3.org/2000/svg" xmlns:xlink="http://www.w3.org/1999/xlink" version="1.1"><rect x="0" y="0" width="900" height="150" fill="#ffffff"></rect><path d="M0 44L30 49.8C60 55.7 120 67.3 180 77.3C240 87.3 300 95.7 360 96.7C420 97.7 480 91.3 540 81C600 70.7 660 56.3 720 50.8C780 45.3 840 48.7 870 50.3L900 52L900 0L870 0C840 0 780 0 720 0C660 0 600 0 540 0C480 0 420 0 360 0C300 0 240 0 180 0C120 0 60 0 30 0L0 0Z" fill="#b889f4"></path><path d="M0 35L30 41.7C60 48.3 120 61.7 180 70.7C240 79.7 300 84.3 360 87.3C420 90.3 480 91.7 540 82.8C600 74 660 55 720 45.5C780 36 840 36 870 36L900 36L900 0L870 0C840 0 780 0 720 0C660 0 600 0 540 0C480 0 420 0 360 0C300 0 240 0 180 0C120 0 60 0 30 0L0 0Z" fill="#8a5fc6"></path><path d="M0 65L30 65C60 65 120 65 180 60.8C240 56.7 300 48.3 360 44.5C420 40.7 480 41.3 540 43.3C600 45.3 660 48.7 720 46.8C780 45 840 38 870 34.5L900 31L900 0L870 0C840 0 780 0 720 0C660 0 600 0 540 0C480 0 420 0 360 0C300 0 240 0 180 0C120 0 60 0 30 0L0 0Z" fill="#5e3799"></path><path d="M0 34L30 36.8C60 39.7 120 45.3 180 46.5C240 47.7 300 44.3 360 43.8C420 43.3 480 45.7 540 47.3C600 49 660 50 720 51C780 52 840 53 870 53.5L900 54L900 0L870 0C840 0 780 0 720 0C660 0 600 0 540 0C480 0 420 0 360 0C300 0 240 0 180 0C120 0 60 0 30 0L0 0Z" fill="#32106e"></path><path d="M0 36L30 34.7C60 33.3 120 30.7 180 27.5C240 24.3 300 20.7 360 21.8C420 23 480 29 540 32.5C600 36 660 37 720 36.8C780 36.7 840 35.3 870 34.7L900 34L900 0L870 0C840 0 780 0 720 0C660 0 600 0 540 0C480 0 420 0 360 0C300 0 240 0 180 0C120 0 60 0 30 0L0 0Z" fill="#000000"></path></svg>