<svg id="visual" viewBox="0 0 900 900" width="900" height="900" xmlns="http://www.w3.org/2000/svg" xmlns:xlink="http://www.w3.org/1999/xlink" version="1.1"><path d="M0 91L180 73L360 145L540 46L720 91L900 154L900 0L720 0L540 0L360 0L180 0L0 0Z" fill="#00cc8e"></path><path d="M0 163L180 379L360 478L540 343L720 280L900 352L900 152L720 89L540 44L360 143L180 71L0 89Z" fill="#00bd8b"></path><path d="M0 289L180 406L360 532L540 478L720 370L900 469L900 350L720 278L540 341L360 476L180 377L0 161Z" fill="#00ae87"></path><path d="M0 424L180 622L360 712L540 703L720 478L900 622L900 467L720 368L540 476L360 530L180 404L0 287Z" fill="#00a081"></path><path d="M0 829L180 838L360 865L540 775L720 847L900 793L900 620L720 476L540 701L360 710L180 620L0 422Z" fill="#00917b"></path><path d="M0 901L180 901L360 901L540 901L720 901L900 901L900 791L720 845L540 773L360 863L180 836L0 827Z" fill="#038373"></path></svg>