<svg id="visual" viewBox="0 0 900 150" width="900" height="150" xmlns="http://www.w3.org/2000/svg" xmlns:xlink="http://www.w3.org/1999/xlink" version="1.1"><rect x="0" y="0" width="900" height="150" fill="#00000000"></rect><path d="M0 97L21.5 95.7C43 94.3 86 91.7 128.8 88.5C171.7 85.3 214.3 81.7 257.2 74.2C300 66.7 343 55.3 385.8 60.5C428.7 65.7 471.3 87.3 514.2 93.7C557 100 600 91 642.8 84.3C685.7 77.7 728.3 73.3 771.2 71.5C814 69.7 857 70.3 878.5 70.7L900 71L900 0L878.5 0C857 0 814 0 771.2 0C728.3 0 685.7 0 642.8 0C600 0 557 0 514.2 0C471.3 0 428.7 0 385.8 0C343 0 300 0 257.2 0C214.3 0 171.7 0 128.8 0C86 0 43 0 21.5 0L0 0Z" fill="#87252d"></path><path d="M0 56L21.5 54C43 52 86 48 128.8 46.5C171.7 45 214.3 46 257.2 51.5C300 57 343 67 385.8 65.8C428.7 64.7 471.3 52.3 514.2 45.8C557 39.3 600 38.7 642.8 44.3C685.7 50 728.3 62 771.2 70.3C814 78.7 857 83.3 878.5 85.7L900 88L900 0L878.5 0C857 0 814 0 771.2 0C728.3 0 685.7 0 642.8 0C600 0 557 0 514.2 0C471.3 0 428.7 0 385.8 0C343 0 300 0 257.2 0C214.3 0 171.7 0 128.8 0C86 0 43 0 21.5 0L0 0Z" fill="#a72e2e"></path><path d="M0 28L21.5 33.5C43 39 86 50 128.8 49C171.7 48 214.3 35 257.2 35.7C300 36.3 343 50.7 385.8 56.8C428.7 63 471.3 61 514.2 53.8C557 46.7 600 34.3 642.8 30.8C685.7 27.3 728.3 32.7 771.2 35.8C814 39 857 40 878.5 40.5L900 41L900 0L878.5 0C857 0 814 0 771.2 0C728.3 0 685.7 0 642.8 0C600 0 557 0 514.2 0C471.3 0 428.7 0 385.8 0C343 0 300 0 257.2 0C214.3 0 171.7 0 128.8 0C86 0 43 0 21.5 0L0 0Z" fill="#c7392b"></path><path d="M0 33L21.5 32.7C43 32.3 86 31.7 128.8 29C171.7 26.3 214.3 21.7 257.2 19.3C300 17 343 17 385.8 18C428.7 19 471.3 21 514.2 24.5C557 28 600 33 642.8 34.7C685.7 36.3 728.3 34.7 771.2 30.8C814 27 857 21 878.5 18L900 15L900 0L878.5 0C857 0 814 0 771.2 0C728.3 0 685.7 0 642.8 0C600 0 557 0 514.2 0C471.3 0 428.7 0 385.8 0C343 0 300 0 257.2 0C214.3 0 171.7 0 128.8 0C86 0 43 0 21.5 0L0 0Z" fill="#e54822"></path></svg>