<svg id="visual" viewBox="0 0 900 150" width="900" height="150" xmlns="http://www.w3.org/2000/svg" xmlns:xlink="http://www.w3.org/1999/xlink" version="1.1"><path d="M0 51L21.5 52.3C43 53.7 86 56.3 128.8 59.5C171.7 62.7 214.3 66.3 257.2 73.8C300 81.3 343 92.7 385.8 87.5C428.7 82.3 471.3 60.7 514.2 54.3C557 48 600 57 642.8 63.7C685.7 70.3 728.3 74.7 771.2 76.5C814 78.3 857 77.7 878.5 77.3L900 77L900 151L878.5 151C857 151 814 151 771.2 151C728.3 151 685.7 151 642.8 151C600 151 557 151 514.2 151C471.3 151 428.7 151 385.8 151C343 151 300 151 257.2 151C214.3 151 171.7 151 128.8 151C86 151 43 151 21.5 151L0 151Z" fill="#4089b8"></path><path d="M0 92L21.5 94C43 96 86 100 128.8 101.5C171.7 103 214.3 102 257.2 96.5C300 91 343 81 385.8 82.2C428.7 83.3 471.3 95.7 514.2 102.2C557 108.7 600 109.3 642.8 103.7C685.7 98 728.3 86 771.2 77.7C814 69.3 857 64.7 878.5 62.3L900 60L900 151L878.5 151C857 151 814 151 771.2 151C728.3 151 685.7 151 642.8 151C600 151 557 151 514.2 151C471.3 151 428.7 151 385.8 151C343 151 300 151 257.2 151C214.3 151 171.7 151 128.8 151C86 151 43 151 21.5 151L0 151Z" fill="#6e67a5"></path><path d="M0 120L21.5 114.5C43 109 86 98 128.8 99C171.7 100 214.3 113 257.2 112.3C300 111.7 343 97.3 385.8 91.2C428.7 85 471.3 87 514.2 94.2C557 101.3 600 113.7 642.8 117.2C685.7 120.7 728.3 115.3 771.2 112.2C814 109 857 108 878.5 107.5L900 107L900 151L878.5 151C857 151 814 151 771.2 151C728.3 151 685.7 151 642.8 151C600 151 557 151 514.2 151C471.3 151 428.7 151 385.8 151C343 151 300 151 257.2 151C214.3 151 171.7 151 128.8 151C86 151 43 151 21.5 151L0 151Z" fill="#8e3f71"></path><path d="M0 115L21.5 115.3C43 115.7 86 116.3 128.8 119C171.7 121.7 214.3 126.3 257.2 128.7C300 131 343 131 385.8 130C428.7 129 471.3 127 514.2 123.5C557 120 600 115 642.8 113.3C685.7 111.7 728.3 113.3 771.2 117.2C814 121 857 127 878.5 130L900 133L900 151L878.5 151C857 151 814 151 771.2 151C728.3 151 685.7 151 642.8 151C600 151 557 151 514.2 151C471.3 151 428.7 151 385.8 151C343 151 300 151 257.2 151C214.3 151 171.7 151 128.8 151C86 151 43 151 21.5 151L0 151Z" fill="#87252d"></path></svg>