<svg id="visual" viewBox="0 0 900 900" width="900" height="900" xmlns="http://www.w3.org/2000/svg" xmlns:xlink="http://www.w3.org/1999/xlink" version="1.1"><g fill="none" stroke="#bed5e8" stroke-width="2"><circle r="41" cx="752" cy="694"></circle><circle r="4" cx="573" cy="511"></circle><circle r="33" cx="804" cy="866"></circle><circle r="34" cx="36" cy="360"></circle><circle r="5" cx="677" cy="96"></circle><circle r="26" cx="605" cy="185"></circle><circle r="16" cx="169" cy="871"></circle><circle r="12" cx="418" cy="703"></circle><circle r="38" cx="378" cy="156"></circle><circle r="10" cx="24" cy="17"></circle><circle r="24" cx="90" cy="736"></circle><circle r="22" cx="719" cy="781"></circle><circle r="17" cx="20" cy="862"></circle><circle r="16" cx="223" cy="386"></circle><circle r="8" cx="481" cy="456"></circle><circle r="30" cx="709" cy="178"></circle><circle r="8" cx="527" cy="126"></circle><circle r="4" cx="660" cy="700"></circle><circle r="15" cx="651" cy="261"></circle><circle r="4" cx="591" cy="378"></circle><circle r="29" cx="315" cy="28"></circle><circle r="21" cx="410" cy="615"></circle><circle r="39" cx="238" cy="135"></circle><circle r="20" cx="719" cy="504"></circle><circle r="12" cx="189" cy="537"></circle><circle r="19" cx="846" cy="496"></circle><circle r="24" cx="176" cy="722"></circle><circle r="30" cx="898" cy="658"></circle><circle r="21" cx="26" cy="267"></circle><circle r="39" cx="776" cy="354"></circle><circle r="21" cx="525" cy="755"></circle><circle r="12" cx="325" cy="225"></circle><circle r="39" cx="170" cy="17"></circle><circle r="9" cx="114" cy="474"></circle><circle r="5" cx="318" cy="688"></circle><circle r="21" cx="838" cy="750"></circle><circle r="36" cx="175" cy="262"></circle><circle r="34" cx="861" cy="52"></circle><circle r="31" cx="620" cy="604"></circle><circle r="6" cx="368" cy="425"></circle><circle r="28" cx="659" cy="895"></circle><circle r="27" cx="514" cy="665"></circle><circle r="21" cx="783" cy="221"></circle></g></svg>