<svg id="visual" viewBox="0 0 900 900" width="900" height="900" xmlns="http://www.w3.org/2000/svg" xmlns:xlink="http://www.w3.org/1999/xlink" version="1.1"><path d="M0 154L13.7 145C27.3 136 54.7 118 82 112C109.3 106 136.7 112 163.8 113.5C191 115 218 112 245.2 121C272.3 130 299.7 151 327 160C354.3 169 381.7 166 409 155.5C436.3 145 463.7 127 491 136C518.3 145 545.7 181 573 185.5C600.3 190 627.7 163 654.8 152.5C682 142 709 148 736.2 164.5C763.3 181 790.7 208 818 208C845.3 208 872.7 181 886.3 167.5L900 154L900 0L886.3 0C872.7 0 845.3 0 818 0C790.7 0 763.3 0 736.2 0C709 0 682 0 654.8 0C627.7 0 600.3 0 573 0C545.7 0 518.3 0 491 0C463.7 0 436.3 0 409 0C381.7 0 354.3 0 327 0C299.7 0 272.3 0 245.2 0C218 0 191 0 163.8 0C136.7 0 109.3 0 82 0C54.7 0 27.3 0 13.7 0L0 0Z" fill="#94cff5"></path><path d="M0 289L13.7 272.5C27.3 256 54.7 223 82 208C109.3 193 136.7 196 163.8 205C191 214 218 229 245.2 251.5C272.3 274 299.7 304 327 310C354.3 316 381.7 298 409 278.5C436.3 259 463.7 238 491 254.5C518.3 271 545.7 325 573 341.5C600.3 358 627.7 337 654.8 323.5C682 310 709 304 736.2 317.5C763.3 331 790.7 364 818 355C845.3 346 872.7 295 886.3 269.5L900 244L900 152L886.3 165.5C872.7 179 845.3 206 818 206C790.7 206 763.3 179 736.2 162.5C709 146 682 140 654.8 150.5C627.7 161 600.3 188 573 183.5C545.7 179 518.3 143 491 134C463.7 125 436.3 143 409 153.5C381.7 164 354.3 167 327 158C299.7 149 272.3 128 245.2 119C218 110 191 113 163.8 111.5C136.7 110 109.3 104 82 110C54.7 116 27.3 134 13.7 143L0 152Z" fill="#7ac4f3"></path><path d="M0 586L13.7 586C27.3 586 54.7 586 82 571C109.3 556 136.7 526 163.8 493C191 460 218 424 245.2 416.5C272.3 409 299.7 430 327 434.5C354.3 439 381.7 427 409 424C436.3 421 463.7 427 491 448C518.3 469 545.7 505 573 527.5C600.3 550 627.7 559 654.8 578.5C682 598 709 628 736.2 652C763.3 676 790.7 694 818 659.5C845.3 625 872.7 538 886.3 494.5L900 451L900 242L886.3 267.5C872.7 293 845.3 344 818 353C790.7 362 763.3 329 736.2 315.5C709 302 682 308 654.8 321.5C627.7 335 600.3 356 573 339.5C545.7 323 518.3 269 491 252.5C463.7 236 436.3 257 409 276.5C381.7 296 354.3 314 327 308C299.7 302 272.3 272 245.2 249.5C218 227 191 212 163.8 203C136.7 194 109.3 191 82 206C54.7 221 27.3 254 13.7 270.5L0 287Z" fill="#5cb9f2"></path><path d="M0 649L13.7 658C27.3 667 54.7 685 82 685C109.3 685 136.7 667 163.8 640C191 613 218 577 245.2 563.5C272.3 550 299.7 559 327 551.5C354.3 544 381.7 520 409 511C436.3 502 463.7 508 491 524.5C518.3 541 545.7 568 573 595C600.3 622 627.7 649 654.8 676C682 703 709 730 736.2 745C763.3 760 790.7 763 818 727C845.3 691 872.7 616 886.3 578.5L900 541L900 449L886.3 492.5C872.7 536 845.3 623 818 657.5C790.7 692 763.3 674 736.2 650C709 626 682 596 654.8 576.5C627.7 557 600.3 548 573 525.5C545.7 503 518.3 467 491 446C463.7 425 436.3 419 409 422C381.7 425 354.3 437 327 432.5C299.7 428 272.3 407 245.2 414.5C218 422 191 458 163.8 491C136.7 524 109.3 554 82 569C54.7 584 27.3 584 13.7 584L0 584Z" fill="#4ea1d5"></path><path d="M0 901L13.7 901C27.3 901 54.7 901 82 901C109.3 901 136.7 901 163.8 901C191 901 218 901 245.2 901C272.3 901 299.7 901 327 901C354.3 901 381.7 901 409 901C436.3 901 463.7 901 491 901C518.3 901 545.7 901 573 901C600.3 901 627.7 901 654.8 901C682 901 709 901 736.2 901C763.3 901 790.7 901 818 901C845.3 901 872.7 901 886.3 901L900 901L900 539L886.3 576.5C872.7 614 845.3 689 818 725C790.7 761 763.3 758 736.2 743C709 728 682 701 654.8 674C627.7 647 600.3 620 573 593C545.7 566 518.3 539 491 522.5C463.7 506 436.3 500 409 509C381.7 518 354.3 542 327 549.5C299.7 557 272.3 548 245.2 561.5C218 575 191 611 163.8 638C136.7 665 109.3 683 82 683C54.7 683 27.3 665 13.7 656L0 647Z" fill="#4089b8"></path></svg>