<?xml version="1.0" encoding="UTF-8"?><svg id="Layer_1" xmlns="http://www.w3.org/2000/svg" viewBox="0 0 438.5 57.2"><defs><style>.cls-1{fill-rule:evenodd;}.cls-1,.cls-2,.cls-3{fill:#414042;stroke:#414042;stroke-miterlimit:10;}.cls-3{stroke-width:4px;}</style></defs><g id="Layer_2"><g id="Layer_1-2"><path class="cls-1" d="M438,41.1h-3.7c-2.1,0-2.5-.6-2.5-3.3V18.1c0-2.7,.5-3.3,2.5-3.3h3.7v-6h-27.5v6h3.7c2,0,2.5,.6,2.5,3.3v19.6c0,2.7-.5,3.3-2.5,3.3h-3.7v6h27.5v-6h0Zm-74.3-26.2h5.1v22.9c0,2.7-.5,3.3-2.5,3.3h-3.7v6h27.5v-6h-3.7c-2,0-2.5-.6-2.5-3.3V14.8h5.1c3.8,0,5.2,2.5,5.6,8.6h6.7V8.8h-49.7v14.6h6.7c.4-6.1,1.8-8.6,5.6-8.6m-180.2,14.4l-9.9-20.4h-26v6h3.7c2.1,0,2.5,.6,2.5,3.3v19.6c0,2.7-.5,3.3-2.5,3.3h-3.7v6h20.5v-6h-3.8c-2.1,0-2.5-.6-2.5-3.3V17.1l14.5,30h7.1l14.5-30v20.6c0,2.7-.5,3.3-2.5,3.3h-3.7v6h27.5v-6h-3.7c-2,0-2.5-.6-2.5-3.3V18.1c0-2.7,.5-3.3,2.5-3.3h3.7v-6h-25.5l-10.1,20.3h-.1Zm86.5,2.6v-11.6h8v12.1c0,10.2-5.5,16.2-21.5,16.2s-21.9-6-21.9-16.2v-14.1c0-2.7-.5-3.3-2.5-3.3h-3.8v-6h27.5v6h-3.7c-2.1,0-2.5,.6-2.5,3.3v13.5c0,7.4,3.5,10.6,10.3,10.6s10.3-3.3,10.3-10.6m65.9-9.9h6.7V8.8h-49.1v6h3.7c2,0,2.5,.6,2.5,3.3v19.6c0,2.7-.5,3.3-2.5,3.3h-3.7v6h27.5v-6h-3.7c-2,0-2.5-.6-2.5-3.3v-6.7h3.6c2.6,0,3.4,1.1,3.4,3.7v.5h6v-14.4h-6v.5c0,2.8-.7,3.7-3.4,3.7h-3.7V14.8h15.9c3.7,0,5,2.6,5.4,6.9m-51.6-12.9h-20.5v6h20.5v-6Z"/><polygon class="cls-2" points="71.4 8.8 50 30.1 28.7 8.8 1.2 36.2 13.4 36.2 28.7 20.9 43.9 36.1 30.2 48.3 50 48.4 50 48.4 69.8 48.3 56.2 36.1 71.3 20.9 86.6 36.2 98.9 36.2 71.4 8.8"/><line class="cls-3" x1="120.4" x2="120.4" y2="57.2"/></g></g></svg>